<svg xmlns="http://www.w3.org/2000/svg" xmlns:xlink="http://www.w3.org/1999/xlink" width="500" zoomAndPan="magnify" viewBox="0 0 375 374.999991" height="500" preserveAspectRatio="xMidYMid meet" version="1.0"><defs><g></g><clipPath id="id1"><path d="M 0 123 L 375 123 L 375 236 L 0 236 Z M 0 123 " clip-rule="nonzero"></path></clipPath><clipPath id="id2"><path d="M -17.519531 165.566406 L 389.84375 123.792969 L 397.035156 193.925781 L -10.328125 235.699219 Z M -17.519531 165.566406 " clip-rule="nonzero"></path></clipPath><clipPath id="id3"><path d="M -34.835938 -3.277344 L 372.527344 -45.050781 L 414.300781 362.3125 L 6.9375 404.085938 Z M -34.835938 -3.277344 " clip-rule="nonzero"></path></clipPath></defs><rect x="-37.5" width="450" fill="#ffffff" y="-37.499999" height="449.999989" fill-opacity="1"></rect><rect x="-37.5" width="450" fill="#ffffff" y="-37.499999" height="449.999989" fill-opacity="1"></rect><rect x="-37.5" width="450" fill="#b6b6c2" y="-37.499999" height="449.999989" fill-opacity="1"></rect><g clip-path="url('#id1')"><g clip-path="url('#id2')"><g clip-path="url('#id3')"><path fill="#ffc736" d="M -34.835938 -3.277344 L 372.527344 -45.050781 L 414.300781 362.3125 L 6.9375 404.085938 Z M -34.835938 -3.277344 " fill-opacity="1" fill-rule="nonzero"></path></g></g></g><g fill="#ffffff" fill-opacity="1"><g transform="translate(9.612708, 210.10143)"><g><path d="M 8.425781 -0.242188 C 8.480469 -0.308594 8.480469 -0.308594 8.46875 -0.433594 L 10.039062 -1.464844 C 12.609375 -3.09375 15.027344 -4.957031 17.476562 -7.136719 C 18.949219 -8.53125 20.222656 -10.027344 21.488281 -11.648438 C 22.320312 -12.605469 23.082031 -13.675781 23.78125 -14.742188 C 24.820312 -16.09375 25.542969 -17.535156 26.328125 -18.980469 C 26.683594 -19.761719 27.050781 -20.421875 27.410156 -21.140625 C 28.164062 -22.898438 28.601562 -24.683594 29.230469 -26.425781 C 29.625 -28.019531 30.089844 -29.558594 30.117188 -31.113281 C 30.230469 -33.050781 30.101562 -34.902344 29.164062 -36.171875 C 28.359375 -37.335938 27.28125 -38.15625 25.867188 -38.632812 C 23.871094 -39.296875 21.75 -39.390625 19.515625 -39.347656 C 17.167969 -39.230469 14.714844 -38.917969 12.1875 -38.097656 C 10.816406 -37.523438 9.347656 -37.3125 7.972656 -36.796875 L 5.980469 -36.21875 C 5.144531 -35.886719 4.101562 -35.15625 3.21875 -35.253906 C 2.972656 -35.226562 2.6875 -35.011719 2.601562 -34.628906 C 2.410156 -34.050781 2.160156 -33.46875 2.105469 -32.777344 C 2.089844 -31.71875 1.972656 -30.464844 2.261719 -29.4375 L 2.390625 -28.207031 C 2.476562 -27.347656 2.859375 -26.640625 3.609375 -26.59375 C 4.054688 -26.515625 4.421875 -26.550781 4.792969 -26.589844 C 5.703125 -26.808594 6.65625 -27.214844 7.71875 -27.761719 C 7.964844 -27.785156 8.140625 -27.867188 8.441406 -27.960938 C 8.273438 -27.195312 8.082031 -26.617188 8.03125 -25.929688 C 7.652344 -24.148438 7.214844 -22.363281 6.84375 -20.523438 C 6.605469 -19.195312 6.328125 -17.675781 5.976562 -16.273438 L 4.222656 -8.511719 L 3.65625 -6.152344 C 3.480469 -5.453125 3.425781 -5.382812 2.765625 -5.128906 C 1.464844 -4.5 3.5 -5.269531 2.074219 -4.625 C 1 -4.203125 -0.0820312 -3.84375 -1.144531 -3.300781 C -1.808594 -3.109375 -2.449219 -2.667969 -3.140625 -2.164062 C -3.503906 -2.0625 -3.835938 -1.65625 -3.984375 -1.269531 C -4.152344 -0.507812 -4.386719 0.261719 -4.609375 1.09375 C -4.660156 1.222656 -4.6875 1.539062 -4.445312 1.511719 C -4.214844 1.921875 -4.164062 2.414062 -4.175781 2.914062 C -4.070312 3.339844 -3.984375 3.578125 -3.601562 3.664062 C -2.894531 3.902344 -2.234375 4.269531 -1.226562 3.792969 C -1.171875 3.722656 -0.988281 3.707031 -0.789062 3.808594 C 0.113281 3.53125 1.03125 3.375 2 3.152344 C 3.820312 2.714844 2.234375 3.003906 4.027344 2.320312 C 4.453125 2.214844 4.925781 1.980469 5.253906 2.132812 C 5.640625 2.28125 5.804688 2.078125 6.082031 1.738281 C 6.652344 0.621094 6.902344 0.660156 7.621094 0.398438 C 8.25 0.460938 9.25 -0.078125 9.863281 -0.761719 Z M 14.5625 -11.3125 C 9.734375 -6.28125 6.101562 -5.347656 8.738281 -12.953125 C 8.996094 -14.097656 9.015625 -15.09375 9.160156 -16.101562 C 9.550781 -17.757812 9.945312 -19.351562 10.273438 -21 C 10.714844 -22.785156 11.152344 -24.570312 11.460938 -26.40625 C 11.59375 -26.914062 11.839844 -27.5625 12.101562 -28.023438 C 12.027344 -28.140625 12.1875 -28.40625 12.308594 -28.417969 C 12.597656 -28.632812 12.960938 -28.734375 13.203125 -28.820312 C 16.5625 -29.972656 19.574219 -30.28125 22.515625 -30.085938 C 23.398438 -29.988281 24.28125 -29.832031 25.109375 -29.667969 C 25.359375 -29.632812 25.582031 -29.28125 25.496094 -28.898438 C 25.5 -27.035156 24.886719 -25.171875 24.035156 -23.15625 C 22.910156 -20.804688 21.390625 -18.660156 19.738281 -16.566406 C 18.199219 -14.605469 16.453125 -12.871094 14.5625 -11.3125 Z M 14.5625 -11.3125 "></path></g></g></g><g fill="#ffffff" fill-opacity="1"><g transform="translate(43.363373, 206.640429)"><g><path d="M 4.863281 -22.871094 C 8.679688 -22.019531 1.957031 -18.46875 0.503906 -16.890625 C -1.070312 -15.300781 -2.113281 -13.328125 -2.625 -11.039062 C -3.226562 -8.429688 -2.914062 -5.976562 -1.324219 -3.839844 C -1.179688 -3.609375 -0.898438 -3.324219 -0.734375 -2.90625 C 0.328125 -1.648438 1.71875 -0.796875 3.3125 -0.402344 C 4.589844 -0.0976562 5.953125 -0.113281 7.292969 -0.375 C 7.589844 -0.53125 7.890625 -0.621094 8.210938 -0.53125 C 8.535156 -0.378906 8.867188 -0.785156 9.179688 -0.753906 C 9.96875 -0.960938 10.707031 -1.035156 11.492188 -1.242188 C 12.230469 -1.316406 12.949219 -1.578125 13.796875 -1.789062 C 14.46875 -1.917969 15.078125 -2.042969 15.734375 -2.296875 C 16.871094 -2.722656 18.09375 -3.535156 19.136719 -4.261719 C 19.835938 -4.707031 20.335938 -5.316406 20.824219 -5.988281 C 21.050781 -6.199219 21.285156 -6.347656 21.585938 -6.4375 C 21.3125 -7.28125 20.875 -7.917969 20.386719 -8.429688 C 20.089844 -8.894531 19.96875 -8.882812 19.515625 -8.464844 C 18.648438 -7.816406 17.578125 -7.332031 16.554688 -7.042969 L 12.902344 -6.292969 C 11.210938 -5.808594 9.378906 -5.496094 7.683594 -5.074219 C 6.335938 -4.875 5.042969 -4.742188 3.671875 -4.789062 C 2.984375 -4.84375 2.289062 -4.957031 1.683594 -5.390625 C 1.082031 -5.828125 0.859375 -7.359375 0.984375 -7.992188 C 1.949219 -12.503906 9.964844 -19.167969 13.128906 -21.042969 C 13.59375 -21.339844 14.054688 -21.699219 14.378906 -22.167969 C 14.753906 -22.765625 15.140625 -23.238281 15.722656 -23.609375 L 15.710938 -23.734375 C 15.539062 -24.210938 15.335938 -24.378906 14.953125 -24.464844 C 14.132812 -24.566406 13.328125 -24.546875 12.609375 -24.285156 C 11.152344 -23.949219 9.671875 -23.859375 8.238281 -23.898438 C -1.414062 -23.46875 14.828125 -30.539062 15.730469 -29.015625 C 16.464844 -29.09375 17.210938 -29.105469 18.03125 -29.003906 C 19.222656 -28.878906 20.222656 -29.414062 21.046875 -30.496094 C 21.542969 -31.105469 21.71875 -31.804688 21.515625 -32.59375 C 21.347656 -33.011719 21.191406 -33.304688 21.09375 -33.667969 L 20.300781 -35.949219 C 20.027344 -36.789062 19.582031 -37.492188 18.867188 -37.789062 C 18.167969 -37.964844 17.402344 -38.136719 16.660156 -38.121094 C 13.738281 -38.132812 10.886719 -37.46875 8.144531 -36.316406 C 6.425781 -35.519531 4.914062 -34.496094 3.578125 -32.992188 C 2.507812 -31.886719 1.964844 -30.527344 1.753906 -28.949219 C 1.511719 -27.0625 2.230469 -25.519531 3.304688 -24.140625 C 3.789062 -23.628906 4.273438 -23.179688 4.863281 -22.871094 Z M 4.863281 -22.871094 "></path></g></g></g><g fill="#ffffff" fill-opacity="1"><g transform="translate(69.24503, 203.986365)"><g><path d="M 9.523438 -13.777344 C 6.730469 -6.46875 4.292969 -5.410156 4.738281 -14.40625 C 4.742188 -14.964844 4.699219 -15.394531 4.648438 -15.886719 C 4.625 -16.691406 4.542969 -17.492188 4.59375 -18.242188 C 4.6875 -19.746094 4.71875 -21.238281 4.882812 -22.683594 C 5.019531 -24.375 5.15625 -26.070312 5.355469 -27.765625 C 5.425781 -28.894531 5.449219 -29.890625 4.984375 -30.773438 C 4.84375 -30.945312 4.757812 -31.183594 4.730469 -31.429688 C 4.617188 -31.917969 4.285156 -32.132812 3.738281 -32.011719 C 3.125 -31.949219 2.523438 -31.765625 1.917969 -31.578125 C 1.871094 -31.449219 1.882812 -31.324219 1.890625 -31.265625 C 2.082031 -29.980469 1.976562 -28.601562 1.8125 -27.15625 C 1.613281 -25.457031 1.605469 -23.714844 1.222656 -22 C 0.445312 -18.6875 -0.0273438 -15.40625 -0.621094 -12.117188 C -0.875 -10.351562 -1.308594 -8.503906 -1.609375 -6.609375 C -1.90625 -4.652344 -1.71875 -2.808594 -1.226562 -1.054688 C -1.128906 -0.691406 -0.84375 -0.347656 -0.515625 -0.195312 C 0.0820312 0.179688 0.769531 0.230469 1.625 0.0820312 L 4.625 -0.351562 L 5.117188 -0.402344 C 6.664062 -1.054688 8.085938 -1.761719 9.324219 -3.007812 C 9.667969 -3.289062 9.9375 -3.691406 10.335938 -4.042969 C 14.574219 -10.566406 14.230469 -9.101562 15.0625 -3.410156 C 15.222656 -3.050781 15.449219 -2.640625 15.789062 -2.363281 C 16.488281 -1.628906 17.578125 -1.304688 18.542969 -0.96875 C 18.992188 -0.828125 19.613281 -0.832031 20.160156 -0.949219 C 20.339844 -1.027344 20.523438 -1.046875 20.707031 -1.066406 C 21.890625 -1.0625 22.871094 -1.785156 23.507812 -2.84375 C 24.585938 -4.449219 25.660156 -6.109375 26.554688 -7.695312 C 27.34375 -9.082031 27.949219 -10.445312 28.617188 -11.820312 L 29.582031 -13.90625 C 29.671875 -14.226562 29.828125 -14.554688 29.855469 -14.867188 C 29.921875 -15.433594 30.300781 -15.96875 30.632812 -16.378906 C 31.082031 -16.859375 31.171875 -17.179688 31.246094 -17.683594 C 31.316406 -18.1875 31.253906 -18.800781 31.957031 -19.246094 C 32.011719 -19.316406 32.113281 -19.511719 32.101562 -19.636719 C 32.453125 -21.039062 32.992188 -22.460938 32.976562 -23.824219 C 32.964844 -23.949219 33.136719 -24.089844 33.242188 -24.289062 L 33.667969 -23.152344 C 33.9375 -24.171875 33.914062 -24.980469 34.324219 -25.828125 L 34.464844 -26.277344 C 34.519531 -26.96875 34.757812 -27.675781 34.871094 -28.371094 C 34.945312 -28.875 34.886719 -29.429688 34.835938 -29.921875 C 34.867188 -30.234375 34.828125 -30.601562 34.792969 -30.972656 C 34.746094 -31.402344 34.765625 -31.839844 34.605469 -32.195312 C 34.574219 -32.503906 34.308594 -32.664062 34.570312 -33.125 C 34.621094 -33.253906 34.546875 -33.371094 34.472656 -33.488281 C 34.328125 -33.660156 34.371094 -33.847656 34.410156 -34.101562 C 34.507812 -34.359375 34.421875 -34.601562 34.519531 -34.859375 C 34.589844 -35.363281 34.191406 -35.632812 34.207031 -36.070312 C 34.164062 -36.5 34.007812 -36.792969 33.730469 -37.078125 C 33.527344 -37.242188 33.445312 -37.421875 33.476562 -37.734375 C 33.605469 -38.308594 33.429688 -38.785156 33.042969 -38.933594 C 32.585938 -39.136719 32.488281 -39.496094 32.320312 -39.914062 C 32.242188 -40.09375 32.214844 -40.339844 32.023438 -40.382812 C 31.570312 -40.582031 31.292969 -40.867188 31.007812 -41.210938 C 30.792969 -41.5 30.445312 -41.835938 30.347656 -42.199219 C 30.246094 -42.5625 30.101562 -42.792969 29.78125 -42.886719 L 29.332031 -43.027344 C 28.855469 -43.414062 28.285156 -43.539062 27.71875 -43.605469 C 26.886719 -43.832031 26.066406 -43.933594 25.238281 -44.160156 L 24.46875 -43.769531 L 24.226562 -43.125 C 24.183594 -42.933594 24.144531 -42.679688 24.21875 -42.566406 C 24.386719 -42.148438 24.609375 -41.796875 24.839844 -41.386719 C 25 -41.027344 25.222656 -40.679688 25.886719 -40.871094 C 26.304688 -41.039062 26.636719 -40.824219 26.84375 -40.597656 C 27.007812 -40.242188 27.09375 -40 27.136719 -39.570312 L 27.582031 -36.445312 C 27.808594 -34.234375 27.789062 -31.992188 27.660156 -29.617188 C 27.609375 -27.6875 27.128906 -25.710938 26.714844 -23.679688 C 26.425781 -22.285156 25.960938 -20.746094 25.550781 -19.273438 L 24.695312 -16.699219 C 23.011719 -11.308594 17.152344 1.222656 18.816406 -11.625 C 18.886719 -13.371094 19.257812 -15.210938 19.683594 -17.117188 C 20.085938 -18.652344 20.535156 -20.3125 20.753906 -21.828125 C 20.820312 -22.394531 21.007812 -22.972656 21.316406 -23.625 C 21.78125 -24.542969 21.800781 -25.539062 22.023438 -26.429688 C 22.070312 -26.558594 22.113281 -26.75 21.984375 -26.800781 C 21.726562 -26.898438 21.882812 -27.164062 21.851562 -27.46875 C 21.890625 -27.722656 21.96875 -28.164062 21.765625 -28.332031 C 21.488281 -28.613281 21.277344 -28.839844 21.292969 -29.277344 C 21.226562 -29.953125 20.660156 -30.019531 20.09375 -30.085938 C 19.589844 -30.160156 19.070312 -30.355469 18.511719 -30.359375 C 17.828125 -30.351562 17.242188 -30.601562 16.46875 -30.273438 C 16.050781 -30.105469 15.515625 -29.867188 15.363281 -29.539062 C 14.941406 -28.8125 14.585938 -28.03125 14.476562 -27.273438 C 14.320312 -25.765625 13.789062 -24.28125 13.320312 -22.804688 C 12.820312 -21.011719 12.128906 -19.265625 11.445312 -17.453125 C 11.207031 -16.746094 10.847656 -16.027344 10.613281 -15.257812 C 10.511719 -15.058594 10.40625 -14.863281 10.234375 -14.71875 C 9.886719 -14.5 9.730469 -14.171875 9.523438 -13.777344 Z M 28.414062 -30.132812 C 28.292969 -27.695312 28.101562 -25.316406 27.363281 -22.816406 L 27.117188 -22.789062 C 27.28125 -23.613281 27.328125 -24.367188 27.492188 -25.191406 C 27.65625 -26.015625 27.753906 -26.894531 27.984375 -27.664062 C 28.148438 -28.488281 28.066406 -29.289062 28.414062 -30.132812 Z M 28.578125 -36.425781 L 28.640625 -36.429688 C 28.671875 -36.125 28.765625 -35.820312 28.796875 -35.515625 C 28.828125 -35.207031 28.804688 -34.832031 28.835938 -34.523438 C 28.871094 -34.15625 29.019531 -33.921875 28.75 -33.523438 C 28.691406 -33.515625 28.566406 -33.503906 28.511719 -33.433594 Z M 33.882812 -25.90625 C 33.671875 -26.753906 33.671875 -26.753906 33.953125 -27.03125 C 33.992188 -26.664062 33.972656 -26.226562 34.003906 -25.921875 Z M 33.882812 -25.90625 "></path></g></g></g><g fill="#ffffff" fill-opacity="1"><g transform="translate(105.33181, 200.285804)"><g><path d="M 20.78125 -22.761719 C 20.738281 -23.191406 20.695312 -23.621094 20.710938 -24.058594 C 20.789062 -25.125 20.742188 -26.175781 21.011719 -27.199219 C 21.308594 -28.53125 21.484375 -29.855469 21.34375 -31.207031 C 21.320312 -31.453125 21.355469 -31.707031 21.335938 -31.890625 C 21.460938 -33.707031 21.53125 -35.453125 21.59375 -37.261719 C 21.703125 -38.640625 21.6875 -40.003906 21.238281 -41.328125 C 21.148438 -41.628906 20.984375 -41.984375 20.769531 -42.273438 C 20.28125 -42.78125 19.742188 -43.222656 19.199219 -43.664062 C 18.925781 -43.886719 18.605469 -43.976562 18.292969 -44.007812 L 15.457031 -44.398438 C 14.761719 -44.515625 14.582031 -44.433594 14.28125 -43.71875 C 13.507812 -41.589844 12.804688 -39.34375 12.480469 -37.074219 C 12.367188 -35.757812 12.253906 -34.441406 12.269531 -33.074219 C 12.320312 -31.960938 12.050781 -30.9375 11.476562 -29.886719 L 7.503906 -21.960938 C 6.359375 -19.792969 5.417969 -17.457031 3.945312 -15.441406 C 3.835938 -15.308594 3.792969 -15.117188 3.691406 -14.917969 L 1.957031 -12.441406 C 1.84375 -12.308594 1.542969 -12.214844 1.414062 -12.261719 C 0.773438 -12.445312 0.132812 -12.628906 -0.449219 -12.878906 C -0.84375 -13.085938 -1.234375 -13.234375 -1.644531 -13.003906 C -1.722656 -12.5625 -1.570312 -12.265625 -1.230469 -11.992188 L 0.09375 -11.195312 L 0.699219 -10.761719 C 0.0078125 -9.632812 0.890625 -10.71875 0.117188 -9.769531 L -1.367188 -7.875 C -2.285156 -6.539062 -3.199219 -5.140625 -4.050781 -3.75 C -2.785156 -2.324219 -3.9375 -0.21875 -0.851562 -1.03125 C 0.484375 -0.734375 -1.425781 -1.78125 -0.0234375 -2.046875 C 0.339844 -2.148438 0.511719 -2.289062 0.730469 -2.5625 C 1.601562 -4.390625 2.789062 -6.128906 3.644531 -8.078125 C 4.054688 -8.929688 4.691406 -9.988281 5.699219 -10.464844 C 6.71875 -10.816406 7.796875 -11.238281 8.75 -11.648438 C 9.988281 -12.273438 11.242188 -12.773438 12.261719 -13.746094 C 12.433594 -13.890625 12.671875 -13.976562 12.90625 -14.125 L 13.191406 -13.160156 C 13.652344 -10.472656 14.109375 -7.847656 15.171875 -5.347656 L 15.695312 -3.910156 C 15.710938 -3.722656 15.75 -3.355469 15.6875 -3.347656 C 15.339844 -3.125 15.492188 -2.832031 15.519531 -2.585938 C 16.046875 -1.085938 16.75 0.332031 17.75 1.597656 C 18.035156 1.941406 18.425781 2.148438 18.828125 2.417969 C 19.09375 2.578125 19.480469 2.726562 19.898438 2.558594 C 19.824219 1.820312 20.464844 2.003906 20.949219 1.890625 C 20.9375 1.769531 20.921875 1.644531 20.980469 1.578125 L 21.136719 1.3125 L 21.75 1.808594 C 21.753906 1.25 21.765625 0.75 21.714844 0.257812 C 21.644531 -0.417969 21.511719 -1.085938 21.445312 -1.765625 C 21.28125 -2.742188 21.125 -3.65625 20.839844 -4.621094 C 20.53125 -5.832031 20.28125 -7.050781 20.460938 -8.3125 C 20.480469 -8.75 20.503906 -9.125 20.457031 -9.554688 C 20.355469 -11.160156 20.1875 -12.820312 20.027344 -14.359375 C 20.140625 -14.492188 20.195312 -14.5625 20.253906 -14.566406 C 20.25 -14.628906 20.3125 -14.636719 20.367188 -14.703125 C 20.769531 -14.992188 20.820312 -15.742188 20.441406 -15.765625 C 20.332031 -15.632812 20.289062 -15.441406 20.070312 -15.167969 C 20.023438 -15.601562 19.992188 -15.90625 20.289062 -16.0625 C 20.761719 -16.296875 20.722656 -16.667969 20.742188 -17.101562 C 20.683594 -17.65625 20.746094 -18.285156 20.6875 -18.835938 C 20.648438 -19.207031 20.808594 -19.472656 21.097656 -19.6875 C 22.65625 -20.839844 24.082031 -22.105469 25.714844 -23.144531 C 26.007812 -23.296875 26.367188 -23.457031 26.449219 -23.839844 C 26 -23.980469 25.667969 -24.195312 25.285156 -24.28125 C 25.027344 -24.378906 24.714844 -24.40625 24.476562 -24.320312 C 23.621094 -24.171875 22.847656 -23.84375 22.089844 -23.332031 L 20.917969 -22.652344 Z M 9.261719 -19.964844 C 11.011719 -24.121094 12.238281 -27.914062 12.425781 -21.222656 C 12.464844 -20.230469 12.511719 -19.179688 12.613281 -18.195312 C 12.59375 -17.757812 12.496094 -17.5 12.085938 -17.273438 C 7.78125 -13.785156 6.121094 -14.859375 9.261719 -19.964844 Z M 9.261719 -19.964844 "></path></g></g></g><g fill="#ffffff" fill-opacity="1"><g transform="translate(134.840585, 197.259793)"><g><path d="M -0.566406 -20.074219 C -0.609375 -19.882812 -0.53125 -19.707031 -0.578125 -19.578125 C -0.0820312 -20.808594 0.152344 -22.136719 0.949219 -23.460938 C 0.933594 -23.027344 0.851562 -22.582031 0.773438 -22.140625 L -1.042969 -15.613281 C -2.253906 -11.078125 -2.988281 -6.714844 -2.75 -2.578125 C -2.652344 -1.03125 -2.488281 0.566406 -2.6875 2.265625 C -2.765625 2.707031 -2.136719 3.386719 -1.824219 3.417969 C -1.074219 3.464844 -0.21875 3.316406 0.691406 3.097656 C 1.472656 2.832031 2.234375 2.382812 2.980469 1.808594 C 3.378906 1.457031 3.707031 0.988281 4.253906 0.867188 C 4.375 0.855469 4.542969 0.652344 4.644531 0.457031 C 5.3125 -0.296875 5.484375 -1.058594 5.585938 -1.878906 C 5.730469 -2.886719 5.933594 -3.964844 6.378906 -5.066406 C 6.769531 -6.101562 7.039062 -7.121094 7.367188 -8.148438 C 7.648438 -9.050781 7.988281 -9.953125 8.589844 -10.761719 C 9.515625 -12.035156 10.1875 -13.347656 10.671875 -14.703125 C 11.070312 -15.675781 11.535156 -16.59375 12.191406 -17.46875 C 12.847656 -18.34375 13.371094 -19.269531 13.714844 -20.171875 C 14.113281 -21.144531 14.644531 -22.007812 15.371094 -22.828125 C 15.824219 -23.246094 16.140625 -23.777344 16.40625 -24.238281 L 20.757812 -32.082031 C 23.167969 -32.824219 20.007812 -25.480469 19.8125 -22.539062 C 19.582031 -21.148438 19.351562 -19.757812 19.050781 -18.421875 L 19.175781 -18.433594 C 19.394531 -19.324219 19.609375 -20.28125 19.765625 -21.167969 C 19.886719 -21.179688 19.949219 -21.183594 20.003906 -21.253906 C 19.667969 -20.285156 20.046875 -19.640625 19.648438 -18.667969 C 19.246094 -17.757812 19.515625 -16.914062 18.863281 -16.039062 C 19.011719 -15.808594 19.269531 -15.710938 19.226562 -15.519531 C 19.207031 -15.082031 19.136719 -14.578125 18.996094 -14.128906 C 18.757812 -13.417969 18.820312 -12.804688 19.042969 -12.453125 C 19.476562 -11.878906 18.804688 -9.945312 18.761719 -9.132812 C 18.730469 -8.820312 18.703125 -8.503906 18.726562 -8.257812 C 19.027344 -7.171875 19.328125 -6.019531 19.683594 -5 C 20.328125 -2.953125 22.617188 -3.066406 24.570312 -4.011719 C 25.453125 -4.472656 26.324219 -5.0625 27.199219 -5.648438 C 27.664062 -5.945312 28.058594 -6.355469 28.375 -6.886719 C 28.792969 -7.675781 29.222656 -8.339844 29.644531 -9.066406 C 29.957031 -9.660156 30.269531 -10.25 30.519531 -10.835938 C 30.566406 -10.964844 30.605469 -11.214844 30.472656 -11.265625 C 30.195312 -11.546875 30.089844 -11.972656 30.035156 -12.523438 C 28.90625 -11.414062 28.363281 -10.054688 27.035156 -9.046875 L 26.578125 -9.871094 C 26.566406 -9.996094 26.492188 -10.113281 26.417969 -10.226562 C 26.066406 -10.628906 26.515625 -12.289062 26.6875 -13.050781 C 26.863281 -13.753906 26.800781 -14.367188 26.554688 -14.964844 C 26.472656 -15.144531 26.507812 -15.394531 26.546875 -15.648438 C 26.613281 -16.214844 26.808594 -16.730469 26.8125 -17.289062 C 26.957031 -18.300781 27.035156 -19.363281 27.296875 -20.445312 C 27.429688 -20.957031 27.257812 -21.4375 27.453125 -21.953125 C 27.808594 -22.738281 27.914062 -23.492188 28.09375 -24.195312 C 28.46875 -25.972656 30.488281 -30.53125 30.871094 -32.246094 C 31.230469 -34.210938 31.347656 -36.085938 30.929688 -37.722656 C 30.652344 -38.625 30.042969 -39.121094 29.039062 -39.207031 C 27.789062 -39.265625 26.414062 -38.75 25.078125 -38.425781 C 24.839844 -38.339844 24.484375 -38.179688 24.238281 -38.152344 C 23.738281 -38.164062 23.273438 -37.867188 22.878906 -37.457031 L 22.253906 -36.894531 C 19.953125 -35.105469 16.671875 -30.109375 15.234375 -27.785156 C 14.0625 -25.863281 13.085938 -23.898438 12.039062 -21.988281 C 9.21875 -17.972656 10.078125 -20.484375 10.6875 -25.457031 C 10.820312 -26.585938 10.714844 -27.632812 11.269531 -28.871094 C 11.429688 -29.136719 11.335938 -29.4375 11.253906 -29.613281 C 11.007812 -30.210938 10.761719 -30.808594 10.402344 -31.265625 C 9.585938 -32.550781 8.003906 -32.824219 6.332031 -32.777344 C 5.34375 -32.738281 4.265625 -32.316406 3.324219 -32.40625 C 2.765625 -32.410156 2.539062 -32.199219 2.355469 -31.5625 C 2.082031 -30.601562 1.808594 -29.640625 1.59375 -28.6875 Z M -0.566406 -20.074219 "></path></g></g></g><g fill="#ffbd59" fill-opacity="1"><g transform="translate(170.864115, 193.565718)"><g></g></g></g><g fill="#ffffff" fill-opacity="1"><g transform="translate(186.223292, 191.990693)"><g><path d="M 6.335938 -21.21875 C 3.960938 -22.589844 1.050781 -25.523438 5.363281 -27.085938 L 7.410156 -27.730469 C 8.003906 -27.976562 8.675781 -28.105469 9.285156 -28.230469 C 11.429688 -28.515625 13.429688 -28.410156 15.421875 -28.363281 C 16.417969 -28.34375 17.421875 -28.257812 18.382812 -27.984375 C 18.648438 -27.824219 19.015625 -27.863281 19.367188 -28.085938 C 20.023438 -28.339844 20.546875 -28.703125 21.191406 -29.078125 C 21.597656 -29.371094 21.871094 -29.710938 22.074219 -30.164062 C 22.277344 -30.621094 22.605469 -31.027344 22.800781 -31.542969 C 23.058594 -32.066406 23.304688 -32.714844 23.320312 -33.152344 C 23.273438 -34.203125 23.535156 -35.285156 23.921875 -36.382812 C 24.011719 -36.703125 23.980469 -37.007812 24.011719 -37.324219 C 24 -37.445312 23.980469 -37.628906 24.027344 -37.761719 C 24.164062 -38.269531 23.953125 -38.496094 23.621094 -38.710938 C 22.757812 -39.246094 21.6875 -39.382812 20.566406 -39.394531 L 17.449219 -39.507812 C 14.042969 -39.40625 10.550781 -38.925781 6.9375 -37.1875 C 6.292969 -36.8125 5.574219 -36.550781 4.867188 -36.167969 C 2.546875 -34.5625 0.296875 -32.839844 -1.257812 -30.445312 C -2.980469 -27.84375 -3.941406 -24.515625 -2.289062 -22.324219 C -1.40625 -20.984375 -0.285156 -19.730469 1.175781 -18.824219 C 2.445312 -17.960938 3.765625 -17.226562 5.199219 -16.566406 C 7.546875 -15.5 9.898438 -14.375 11.960938 -13.035156 C 13.222656 -12.230469 13.902344 -11.058594 14.480469 -9.6875 C 14.703125 -9.335938 14.566406 -8.828125 14.058594 -8.339844 C 13.390625 -7.585938 12.578125 -7.007812 11.816406 -6.554688 C 10.769531 -5.890625 9.644531 -5.339844 8.585938 -4.734375 C 7.53125 -4.128906 6.386719 -3.761719 5.300781 -3.464844 C 4.695312 -3.277344 4.074219 -3.277344 3.566406 -3.410156 C 3.121094 -3.488281 2.90625 -3.777344 2.921875 -4.214844 C 2.921875 -4.835938 2.871094 -5.328125 2.9375 -5.894531 C 2.964844 -6.828125 3.320312 -7.609375 3.855469 -8.472656 L 4.804688 -10.125 C 4.960938 -10.390625 5.003906 -10.578125 4.925781 -10.757812 C 4.832031 -11.058594 4.804688 -11.304688 4.773438 -11.613281 C 4.652344 -11.601562 4.460938 -11.644531 4.148438 -11.671875 L 4.902344 -12.183594 C 4.390625 -12.320312 4.203125 -11.742188 3.847656 -11.578125 C 2.910156 -11.609375 2.683594 -11.398438 2.285156 -10.425781 C 2.183594 -10.226562 2.085938 -9.96875 1.914062 -9.828125 C 1.015625 -8.867188 0.320312 -7.800781 -0.257812 -6.746094 C -0.949219 -5.621094 -1.394531 -4.515625 -1.71875 -3.429688 C -2.09375 -1.648438 -1.71875 -0.382812 -0.695312 0.507812 C 0.464844 1.503906 2.113281 1.832031 3.800781 1.910156 C 4.925781 1.980469 6.027344 1.804688 7.285156 1.367188 C 7.820312 1.125 8.238281 0.957031 8.707031 0.660156 C 9.226562 0.296875 9.714844 0.183594 10.265625 0.128906 C 10.949219 0.121094 11.679688 -0.015625 12.320312 -0.457031 C 13.675781 -1.152344 14.894531 -2.023438 15.949219 -3.25 C 16.230469 -3.527344 16.5 -3.929688 16.660156 -4.195312 C 17.09375 -4.796875 17.394531 -5.511719 17.636719 -6.160156 C 18.492188 -8.109375 18.558594 -9.917969 18.023438 -11.480469 C 17.167969 -13.753906 15.804688 -15.539062 13.992188 -16.847656 C 12.726562 -17.710938 11.515625 -18.582031 10.027344 -19.171875 C 9.835938 -19.214844 9.640625 -19.320312 9.441406 -19.425781 C 8.445312 -20.066406 7.382812 -20.703125 6.335938 -21.21875 Z M 6.335938 -21.21875 "></path></g></g></g><g fill="#ffffff" fill-opacity="1"><g transform="translate(210.936882, 189.45641)"><g><path d="M -1.824219 -35.359375 C -1.121094 -35.179688 -0.605469 -34.984375 -0.417969 -34.382812 C -0.265625 -34.089844 0.125 -33.941406 0.445312 -33.851562 C 0.886719 -33.769531 1.441406 -33.828125 1.9375 -33.816406 C 2.621094 -33.824219 3.367188 -33.839844 4.011719 -33.59375 C 4.210938 -33.492188 4.515625 -33.523438 4.769531 -33.484375 C 10.296875 -34.113281 5.148438 -22.527344 4.628906 -20.296875 C 3.660156 -16.40625 3.007812 -12.488281 2.59375 -8.65625 C 2.46875 -6.839844 2.398438 -5.09375 2.398438 -3.289062 C 2.429688 -1.742188 3.007812 -0.371094 3.574219 0.9375 C 3.730469 1.234375 4.007812 1.515625 4.28125 1.734375 C 4.6875 2.066406 5.34375 1.8125 5.785156 1.269531 L 6.589844 0.628906 C 7.289062 0.183594 7.855469 -0.371094 8.269531 -1.160156 C 8.476562 -1.554688 8.746094 -1.953125 9.023438 -2.292969 C 9.460938 -2.894531 9.710938 -3.480469 9.769531 -4.109375 C 9.871094 -4.925781 10.097656 -5.757812 10.324219 -6.589844 C 10.464844 -7.039062 10.597656 -7.550781 10.554688 -7.980469 C 10.484375 -8.65625 10.539062 -9.34375 10.648438 -10.101562 L 10.988281 -11.628906 L 11.613281 -14.613281 C 11.648438 -14.867188 11.746094 -15.125 11.777344 -15.4375 C 11.921875 -16.445312 12 -17.511719 12.324219 -18.601562 C 13.050781 -20.601562 13.59375 -22.582031 14.132812 -24.566406 C 14.261719 -25.136719 14.519531 -25.660156 14.714844 -26.179688 C 16.738281 -28.871094 15.804688 -35.550781 19.78125 -36.144531 C 20.6875 -36.421875 21.546875 -36.511719 22.433594 -36.976562 C 23.195312 -37.425781 23.960938 -37.816406 24.660156 -38.261719 L 26.453125 -39.5625 C 26.867188 -39.789062 27.074219 -40.183594 27.160156 -40.566406 C 27.335938 -41.890625 27.332031 -43.132812 26.902344 -44.269531 C 26.824219 -44.445312 26.742188 -44.625 26.601562 -44.796875 C 25.96875 -44.296875 25.421875 -44.179688 24.8125 -44.054688 C 22.195312 -43.539062 19.574219 -43.019531 16.960938 -42.441406 L 11.261719 -41.050781 C 9.929688 -40.726562 8.539062 -40.335938 7.230469 -39.765625 C 6.039062 -39.269531 4.910156 -38.78125 3.765625 -38.417969 C 2.566406 -37.984375 1.4375 -37.492188 0.257812 -36.875 C -0.449219 -36.492188 -1.085938 -36.054688 -1.824219 -35.359375 Z M -1.824219 -35.359375 "></path></g></g></g><g fill="#ffffff" fill-opacity="1"><g transform="translate(232.822559, 187.212117)"><g><path d="M 15.867188 -13.746094 C 14.136719 -11.828125 5.332031 -0.113281 7.324219 -8.582031 C 7.765625 -10.304688 8.398438 -12.046875 8.480469 -13.671875 C 8.542969 -14.238281 8.667969 -14.871094 8.792969 -15.441406 C 9.101562 -17.277344 9.542969 -19.0625 9.855469 -20.832031 C 10.070312 -21.789062 10.160156 -22.730469 10.433594 -23.6875 C 10.882812 -25.972656 11.148438 -25.8125 11.71875 -28.109375 C 12.128906 -30.203125 11.621094 -31.515625 10.007812 -32.097656 C 9.101562 -32.4375 7.976562 -32.507812 7.070312 -32.851562 C 6.308594 -33.023438 5.507812 -32.941406 4.714844 -32.796875 L 2.722656 -32.21875 C 2.359375 -32.121094 2.003906 -31.960938 1.84375 -31.695312 L 1.457031 -29.417969 C 1.148438 -28.207031 0.898438 -27 0.53125 -25.71875 C -0.710938 -21.488281 -0.726562 -19.8125 -1.480469 -15.632812 C -1.769531 -13.613281 -1.882812 -11.675781 -2.171875 -9.65625 C -2.558594 -7.382812 -2.527344 -5.269531 -1.847656 -3.476562 C -1.199219 -1.988281 -0.277344 -0.902344 1.597656 -0.785156 C 3.730469 -0.570312 5.976562 -1.109375 8.40625 -2.851562 C 9.738281 -3.796875 11.054688 -4.925781 12.175781 -6.09375 C 14.378906 -8.246094 16.449219 -9.890625 15.597656 -4.832031 C 15.5625 -3.957031 15.703125 -3.226562 15.90625 -2.4375 C 16.03125 -1.832031 16.609375 -1.640625 17.355469 -1.65625 C 17.785156 -1.699219 18.226562 -1.621094 18.664062 -1.601562 C 19.605469 -1.511719 20.515625 -1.730469 21.566406 -2.398438 C 21.910156 -2.683594 22.382812 -2.917969 22.664062 -3.195312 C 23.746094 -4.175781 24.628906 -5.257812 24.386719 -6.414062 C 24.261719 -7.023438 23.796875 -7.289062 23.453125 -7.625 C 21.363281 -7.410156 23.347656 -12.894531 23.503906 -15.023438 C 23.707031 -18.464844 25.371094 -22.238281 25.898438 -25.585938 C 26.019531 -26.21875 26.265625 -26.867188 26.570312 -27.519531 C 27.242188 -28.832031 27.738281 -30.0625 27.921875 -31.324219 L 28.773438 -35.140625 C 28.898438 -35.710938 29.921875 -37.867188 29.429688 -37.816406 C 28.308594 -37.828125 27.257812 -37.78125 26.144531 -37.726562 C 25.953125 -37.769531 25.597656 -37.609375 25.230469 -37.574219 C 25.148438 -37.128906 23.773438 -34.8125 23.6875 -34.429688 C 22.597656 -31.710938 21.816406 -29.019531 21.042969 -26.269531 C 20.824219 -25.375 20.484375 -24.472656 20.203125 -23.574219 C 19.8125 -22.539062 18.207031 -16.96875 17.765625 -16.425781 C 17.109375 -15.550781 16.582031 -14.625 15.867188 -13.746094 Z M 15.867188 -13.746094 "></path></g></g></g><g fill="#ffffff" fill-opacity="1"><g transform="translate(264.790404, 183.933938)"><g><path d="M 8.425781 -0.242188 C 8.480469 -0.308594 8.480469 -0.308594 8.46875 -0.433594 L 10.039062 -1.464844 C 12.609375 -3.09375 15.027344 -4.957031 17.476562 -7.136719 C 18.949219 -8.53125 20.222656 -10.027344 21.488281 -11.648438 C 22.320312 -12.605469 23.082031 -13.675781 23.78125 -14.742188 C 24.820312 -16.09375 25.542969 -17.535156 26.328125 -18.980469 C 26.683594 -19.761719 27.050781 -20.421875 27.410156 -21.140625 C 28.164062 -22.898438 28.601562 -24.683594 29.230469 -26.425781 C 29.625 -28.019531 30.089844 -29.558594 30.117188 -31.113281 C 30.230469 -33.050781 30.101562 -34.902344 29.164062 -36.171875 C 28.359375 -37.335938 27.28125 -38.15625 25.867188 -38.632812 C 23.871094 -39.296875 21.75 -39.390625 19.515625 -39.347656 C 17.167969 -39.230469 14.714844 -38.917969 12.1875 -38.097656 C 10.816406 -37.523438 9.347656 -37.3125 7.972656 -36.796875 L 5.980469 -36.21875 C 5.144531 -35.886719 4.101562 -35.15625 3.21875 -35.253906 C 2.972656 -35.226562 2.6875 -35.011719 2.601562 -34.628906 C 2.410156 -34.050781 2.160156 -33.46875 2.105469 -32.777344 C 2.089844 -31.71875 1.972656 -30.464844 2.261719 -29.4375 L 2.390625 -28.207031 C 2.476562 -27.347656 2.859375 -26.640625 3.609375 -26.59375 C 4.054688 -26.515625 4.421875 -26.550781 4.792969 -26.589844 C 5.703125 -26.808594 6.65625 -27.214844 7.71875 -27.761719 C 7.964844 -27.785156 8.140625 -27.867188 8.441406 -27.960938 C 8.273438 -27.195312 8.082031 -26.617188 8.03125 -25.929688 C 7.652344 -24.148438 7.214844 -22.363281 6.84375 -20.523438 C 6.605469 -19.195312 6.328125 -17.675781 5.976562 -16.273438 L 4.222656 -8.511719 L 3.65625 -6.152344 C 3.480469 -5.453125 3.425781 -5.382812 2.765625 -5.128906 C 1.464844 -4.5 3.5 -5.269531 2.074219 -4.625 C 1 -4.203125 -0.0820312 -3.84375 -1.144531 -3.300781 C -1.808594 -3.109375 -2.449219 -2.667969 -3.140625 -2.164062 C -3.503906 -2.0625 -3.835938 -1.65625 -3.984375 -1.269531 C -4.152344 -0.507812 -4.386719 0.261719 -4.609375 1.09375 C -4.660156 1.222656 -4.6875 1.539062 -4.445312 1.511719 C -4.214844 1.921875 -4.164062 2.414062 -4.175781 2.914062 C -4.070312 3.339844 -3.984375 3.578125 -3.601562 3.664062 C -2.894531 3.902344 -2.234375 4.269531 -1.226562 3.792969 C -1.171875 3.722656 -0.988281 3.707031 -0.789062 3.808594 C 0.113281 3.53125 1.03125 3.375 2 3.152344 C 3.820312 2.714844 2.234375 3.003906 4.027344 2.320312 C 4.453125 2.214844 4.925781 1.980469 5.253906 2.132812 C 5.640625 2.28125 5.804688 2.078125 6.082031 1.738281 C 6.652344 0.621094 6.902344 0.660156 7.621094 0.398438 C 8.25 0.460938 9.25 -0.078125 9.863281 -0.761719 Z M 14.5625 -11.3125 C 9.734375 -6.28125 6.101562 -5.347656 8.738281 -12.953125 C 8.996094 -14.097656 9.015625 -15.09375 9.160156 -16.101562 C 9.550781 -17.757812 9.945312 -19.351562 10.273438 -21 C 10.714844 -22.785156 11.152344 -24.570312 11.460938 -26.40625 C 11.59375 -26.914062 11.839844 -27.5625 12.101562 -28.023438 C 12.027344 -28.140625 12.1875 -28.40625 12.308594 -28.417969 C 12.597656 -28.632812 12.960938 -28.734375 13.203125 -28.820312 C 16.5625 -29.972656 19.574219 -30.28125 22.515625 -30.085938 C 23.398438 -29.988281 24.28125 -29.832031 25.109375 -29.667969 C 25.359375 -29.632812 25.582031 -29.28125 25.496094 -28.898438 C 25.5 -27.035156 24.886719 -25.171875 24.035156 -23.15625 C 22.910156 -20.804688 21.390625 -18.660156 19.738281 -16.566406 C 18.199219 -14.605469 16.453125 -12.871094 14.5625 -11.3125 Z M 14.5625 -11.3125 "></path></g></g></g><g fill="#ffffff" fill-opacity="1"><g transform="translate(298.541069, 180.472937)"><g><path d="M 3.585938 -32.308594 C 3.640625 -32.375 2.191406 -31.355469 2.191406 -31.355469 C 2.320312 -31.308594 2.269531 -29.996094 2.390625 -30.011719 C 5.429688 -29.453125 6.761719 -31.019531 6.078125 -26.785156 C 5.890625 -25.585938 5.980469 -25.90625 5.800781 -24.644531 C 5.679688 -24.007812 5.804688 -23.402344 5.742188 -22.773438 C 5.675781 -22.207031 5.789062 -21.722656 5.597656 -21.144531 C 5.257812 -20.238281 5.210938 -19.488281 5.050781 -18.601562 C 4.914062 -17.53125 4.78125 -16.398438 4.101562 -15.148438 C 3.9375 -14.945312 3.898438 -14.691406 3.789062 -14.558594 C 3.378906 -13.085938 3.191406 -11.886719 3.078125 -10.570312 C 2.871094 -9.554688 2.671875 -8.476562 2.410156 -7.394531 L 2.09375 -6.863281 C 1.75 -6.578125 1.460938 -6.363281 1.105469 -6.203125 C 0.328125 -5.875 -0.390625 -5.613281 -1.15625 -5.226562 C -1.925781 -4.835938 -2.75 -4.378906 -3.503906 -3.867188 C -3.683594 -3.785156 -3.902344 -3.515625 -4 -3.257812 L -4.886719 -1.613281 C -5.390625 -0.441406 -5.339844 0.0507812 -4.441406 0.332031 C -4.113281 0.484375 -3.855469 0.582031 -3.425781 0.539062 C -2.085938 0.277344 -0.792969 0.144531 0.417969 -0.167969 C 1.9375 -0.507812 3.566406 -0.988281 5.140625 -1.398438 L 9.019531 -2.355469 C 9.804688 -2.558594 10.363281 -2.554688 10.710938 -2.214844 C 10.925781 -1.929688 11.335938 -2.15625 11.808594 -2.390625 C 12.160156 -2.613281 12.324219 -2.816406 12.171875 -3.113281 C 12.003906 -3.53125 12.136719 -4.042969 12.566406 -4.707031 C 12.671875 -4.902344 12.695312 -5.277344 12.792969 -5.539062 C 12.914062 -6.171875 13.207031 -6.945312 12.964844 -7.480469 C 12.890625 -7.597656 12.984375 -7.917969 13.082031 -8.175781 C 12.480469 -7.992188 12.613281 -8.5 12.570312 -8.933594 C 11.949219 -8.929688 11.136719 -8.972656 10.34375 -8.828125 C 6.96875 -7.796875 8.753906 -12.207031 9.28125 -14.3125 L 10.214844 -18.570312 C 10.378906 -19.394531 10.363281 -20.140625 10.472656 -20.898438 L 11.492188 -27.898438 C 11.722656 -29.289062 11.839844 -29.363281 12.015625 -30.6875 C 12.613281 -32.738281 15.65625 -32.738281 17.433594 -33.605469 C 17.511719 -34.046875 17.695312 -35.308594 17.375 -35.398438 C 17.046875 -35.550781 17.003906 -35.984375 17.027344 -36.359375 C 17.140625 -37.675781 16.449219 -38.351562 15.316406 -38.480469 C 14.425781 -38.703125 13.261719 -38.519531 12.125 -38.09375 C 10.269531 -37.40625 8.53125 -36.792969 6.75 -35.988281 C 5.851562 -35.648438 4.867188 -35.546875 3.910156 -34.578125 C 3.894531 -34.140625 3.691406 -33.6875 3.175781 -33.261719 C 3.066406 -33.125 3.023438 -32.933594 2.851562 -32.792969 C 2.648438 -32.335938 3.902344 -32.835938 3.585938 -32.308594 Z M -1.847656 -0.433594 C -1.582031 -0.894531 -1.21875 -0.992188 -0.917969 -1.085938 C 0.296875 -1.335938 1.75 -1.734375 3.152344 -2 C 3.691406 -2.179688 4.175781 -2.292969 4.761719 -2.664062 C 4.933594 -2.804688 5.054688 -2.816406 5.234375 -2.898438 C 6.019531 -3.101562 6.75 -3.238281 7.472656 -3.5 C 7.832031 -3.601562 8.128906 -3.753906 8.414062 -3.410156 L 6.769531 -3.054688 C 7.027344 -2.957031 7.386719 -3.117188 7.691406 -3.148438 C 8.054688 -3.25 8.417969 -3.347656 8.730469 -3.320312 C 9.039062 -3.351562 9.351562 -3.320312 9.785156 -3.363281 C 9.15625 -2.804688 8.898438 -2.902344 8.363281 -2.660156 C 7.878906 -2.546875 7.441406 -2.566406 6.96875 -2.332031 C 6.386719 -1.960938 5.777344 -1.835938 5.242188 -1.59375 C 4.640625 -1.40625 3.96875 -1.277344 3.363281 -1.152344 L 0.140625 -0.449219 C -0.472656 -0.386719 -1.035156 -0.390625 -1.648438 -0.328125 Z M 12.507812 -33.160156 C 12.082031 -33.054688 12.003906 -33.234375 12.15625 -33.558594 C 13.015625 -34.269531 13.429688 -33.875 14.179688 -33.828125 Z M 4.984375 -31.394531 C 5.039062 -31.460938 5.039062 -31.460938 5.03125 -31.523438 C 5.148438 -31.597656 5.273438 -31.609375 5.394531 -31.625 C 5.511719 -31.699219 5.574219 -31.703125 5.695312 -31.714844 L 5.707031 -31.59375 Z M 4.984375 -31.394531 "></path></g></g></g><g fill="#ffffff" fill-opacity="1"><g transform="translate(319.873451, 178.285383)"><g><path d="M -1.859375 -10.871094 C -1.78125 -10.691406 -1.824219 -10.5 -1.742188 -10.324219 C -1.519531 -8.171875 -0.992188 -6.050781 0.0585938 -4.292969 C 1.273438 -2.121094 2.921875 -0.609375 5.148438 0.527344 C 6.007812 1 7.027344 1.269531 8.078125 1.222656 C 8.511719 1.179688 8.953125 1.257812 9.390625 1.273438 C 9.960938 1.402344 10.578125 1.339844 11.214844 0.902344 C 11.570312 0.738281 11.933594 0.640625 12.285156 0.417969 C 13.84375 -0.113281 15.109375 -1.113281 16.046875 -2.265625 C 17.101562 -3.492188 17.917969 -4.632812 18.855469 -5.785156 C 19.007812 -6.113281 19.339844 -6.519531 19.371094 -6.832031 C 19.984375 -8.140625 20.785156 -9.402344 20.953125 -10.785156 C 21.214844 -11.871094 21.667969 -12.910156 21.746094 -13.972656 C 22.011719 -15.617188 22.457031 -17.339844 22.410156 -19.015625 C 22.332031 -20.375 22.679688 -21.835938 22.71875 -23.269531 C 22.648438 -23.949219 22.640625 -24.628906 22.570312 -25.308594 C 22.675781 -25.503906 22.578125 -25.867188 22.679688 -26.0625 C 23.121094 -27.226562 23.351562 -28.617188 23.339844 -29.921875 C 23.234375 -31.589844 23 -33.242188 22.359375 -34.667969 C 21.769531 -36.160156 21.1875 -37.59375 20.214844 -38.613281 C 19.378906 -39.457031 18.566406 -40.121094 17.6875 -40.839844 C 17.144531 -41.28125 16.320312 -41.445312 15.390625 -41.410156 C 13.367188 -41.140625 11.253906 -40.550781 9.554688 -38.949219 C 8.933594 -38.324219 8.363281 -37.832031 7.734375 -37.269531 C 7.582031 -36.945312 7.292969 -36.726562 6.84375 -36.867188 C 6.101562 -36.855469 5.371094 -36.714844 4.761719 -35.972656 C 4.003906 -34.898438 3.308594 -33.769531 2.933594 -32.613281 L 1.757812 -29.511719 C 1.441406 -28.980469 1.214844 -28.148438 1.03125 -27.511719 L -1.273438 -19.070312 C -1.980469 -16.265625 -2.382812 -13.550781 -1.859375 -10.871094 Z M 3.242188 -18.664062 C 4.5 -18.542969 5.488281 -18.582031 6.402344 -18.179688 C 6.792969 -17.972656 7.273438 -18.144531 7.765625 -18.195312 C 8.074219 -18.226562 8.421875 -18.449219 8.386719 -18.820312 C 8.792969 -20.289062 9.339844 -21.652344 9.800781 -23.1875 C 9.78125 -23.375 9.832031 -23.503906 10.003906 -23.644531 C 10.289062 -24.480469 10.523438 -25.25 10.6875 -26.078125 C 10.90625 -26.96875 11.394531 -27.640625 11.75 -28.421875 C 12.320312 -29.539062 12.765625 -30.640625 13.335938 -31.753906 C 13.542969 -32.148438 13.824219 -32.425781 14.066406 -32.511719 C 14.464844 -32.863281 14.886719 -32.96875 15.238281 -33.191406 C 16.074219 -33.527344 16.777344 -33.351562 17.324219 -32.847656 C 18.070312 -32.238281 18.390625 -31.527344 18.429688 -30.535156 C 18.546875 -28.1875 18.503906 -25.574219 18.371094 -23.261719 C 18.066406 -19.5625 17.257812 -15.9375 15.863281 -12.5625 C 14.621094 -9.515625 12.714844 -6.898438 10.59375 -4.566406 C 9.980469 -3.882812 9.148438 -3.484375 8.386719 -3.035156 C 8.042969 -2.75 7.539062 -2.824219 7.144531 -3.03125 C 6.160156 -3.550781 5.765625 -4.382812 5.464844 -5.46875 C 5.058594 -7.042969 4.523438 -8.605469 3.917969 -10.28125 C 3.753906 -11.257812 3.351562 -12.152344 3.0625 -13.175781 C 2.992188 -13.851562 3.113281 -14.488281 3.097656 -15.230469 C 3.089844 -15.914062 3.070312 -16.71875 3.234375 -17.542969 C 3.203125 -17.851562 3.164062 -18.222656 3.242188 -18.664062 Z M 3.242188 -18.664062 "></path></g></g></g><g fill="#ffffff" fill-opacity="1"><g transform="translate(348.6445, 175.335022)"><g><path d="M 6.335938 -21.21875 C 3.960938 -22.589844 1.050781 -25.523438 5.363281 -27.085938 L 7.410156 -27.730469 C 8.003906 -27.976562 8.675781 -28.105469 9.285156 -28.230469 C 11.429688 -28.515625 13.429688 -28.410156 15.421875 -28.363281 C 16.417969 -28.34375 17.421875 -28.257812 18.382812 -27.984375 C 18.648438 -27.824219 19.015625 -27.863281 19.367188 -28.085938 C 20.023438 -28.339844 20.546875 -28.703125 21.191406 -29.078125 C 21.597656 -29.371094 21.871094 -29.710938 22.074219 -30.164062 C 22.277344 -30.621094 22.605469 -31.027344 22.800781 -31.542969 C 23.058594 -32.066406 23.304688 -32.714844 23.320312 -33.152344 C 23.273438 -34.203125 23.535156 -35.285156 23.921875 -36.382812 C 24.011719 -36.703125 23.980469 -37.007812 24.011719 -37.324219 C 24 -37.445312 23.980469 -37.628906 24.027344 -37.761719 C 24.164062 -38.269531 23.953125 -38.496094 23.621094 -38.710938 C 22.757812 -39.246094 21.6875 -39.382812 20.566406 -39.394531 L 17.449219 -39.507812 C 14.042969 -39.40625 10.550781 -38.925781 6.9375 -37.1875 C 6.292969 -36.8125 5.574219 -36.550781 4.867188 -36.167969 C 2.546875 -34.5625 0.296875 -32.839844 -1.257812 -30.445312 C -2.980469 -27.84375 -3.941406 -24.515625 -2.289062 -22.324219 C -1.40625 -20.984375 -0.285156 -19.730469 1.175781 -18.824219 C 2.445312 -17.960938 3.765625 -17.226562 5.199219 -16.566406 C 7.546875 -15.5 9.898438 -14.375 11.960938 -13.035156 C 13.222656 -12.230469 13.902344 -11.058594 14.480469 -9.6875 C 14.703125 -9.335938 14.566406 -8.828125 14.058594 -8.339844 C 13.390625 -7.585938 12.578125 -7.007812 11.816406 -6.554688 C 10.769531 -5.890625 9.644531 -5.339844 8.585938 -4.734375 C 7.53125 -4.128906 6.386719 -3.761719 5.300781 -3.464844 C 4.695312 -3.277344 4.074219 -3.277344 3.566406 -3.410156 C 3.121094 -3.488281 2.90625 -3.777344 2.921875 -4.214844 C 2.921875 -4.835938 2.871094 -5.328125 2.9375 -5.894531 C 2.964844 -6.828125 3.320312 -7.609375 3.855469 -8.472656 L 4.804688 -10.125 C 4.960938 -10.390625 5.003906 -10.578125 4.925781 -10.757812 C 4.832031 -11.058594 4.804688 -11.304688 4.773438 -11.613281 C 4.652344 -11.601562 4.460938 -11.644531 4.148438 -11.671875 L 4.902344 -12.183594 C 4.390625 -12.320312 4.203125 -11.742188 3.847656 -11.578125 C 2.910156 -11.609375 2.683594 -11.398438 2.285156 -10.425781 C 2.183594 -10.226562 2.085938 -9.96875 1.914062 -9.828125 C 1.015625 -8.867188 0.320312 -7.800781 -0.257812 -6.746094 C -0.949219 -5.621094 -1.394531 -4.515625 -1.71875 -3.429688 C -2.09375 -1.648438 -1.71875 -0.382812 -0.695312 0.507812 C 0.464844 1.503906 2.113281 1.832031 3.800781 1.910156 C 4.925781 1.980469 6.027344 1.804688 7.285156 1.367188 C 7.820312 1.125 8.238281 0.957031 8.707031 0.660156 C 9.226562 0.296875 9.714844 0.183594 10.265625 0.128906 C 10.949219 0.121094 11.679688 -0.015625 12.320312 -0.457031 C 13.675781 -1.152344 14.894531 -2.023438 15.949219 -3.25 C 16.230469 -3.527344 16.5 -3.929688 16.660156 -4.195312 C 17.09375 -4.796875 17.394531 -5.511719 17.636719 -6.160156 C 18.492188 -8.109375 18.558594 -9.917969 18.023438 -11.480469 C 17.167969 -13.753906 15.804688 -15.539062 13.992188 -16.847656 C 12.726562 -17.710938 11.515625 -18.582031 10.027344 -19.171875 C 9.835938 -19.214844 9.640625 -19.320312 9.441406 -19.425781 C 8.445312 -20.066406 7.382812 -20.703125 6.335938 -21.21875 Z M 6.335938 -21.21875 "></path></g></g></g><g fill="#000000" fill-opacity="1"><g transform="translate(168.719716, 244.017933)"><g><path d="M 5.578125 -0.6875 L 3.59375 0.15625 C 2.757812 0.1875 2.082031 0.0507812 1.5625 -0.25 C 1.039062 -0.5625 0.660156 -0.96875 0.421875 -1.46875 C 0.191406 -1.96875 0.078125 -2.492188 0.078125 -3.046875 C 0.078125 -3.640625 0.203125 -4.191406 0.453125 -4.703125 C 0.703125 -5.222656 1.078125 -5.644531 1.578125 -5.96875 C 2.078125 -6.289062 2.6875 -6.453125 3.40625 -6.453125 C 4.164062 -6.453125 4.828125 -6.25 5.390625 -5.84375 L 5.40625 -5.65625 C 5.40625 -5.144531 5.328125 -4.601562 5.171875 -4.03125 L 4.140625 -4.03125 L 3.859375 -5.296875 C 3.460938 -5.441406 3.050781 -5.523438 2.625 -5.546875 C 2.351562 -5.296875 2.148438 -4.96875 2.015625 -4.5625 C 1.878906 -4.164062 1.8125 -3.742188 1.8125 -3.296875 C 1.8125 -2.597656 1.972656 -2.023438 2.296875 -1.578125 C 2.617188 -1.140625 3.085938 -0.929688 3.703125 -0.953125 L 5.3125 -1.453125 Z M 5.578125 -0.6875 "></path></g></g></g><g fill="#000000" fill-opacity="1"><g transform="translate(178.815809, 244.017933)"><g><path d="M 5.828125 -1.984375 C 5.828125 -1.148438 5.785156 -0.488281 5.703125 0 L 0.28125 0 L 0.234375 -0.296875 C 0.472656 -0.460938 0.738281 -0.613281 1.03125 -0.75 L 1.03125 -5.65625 L 0.296875 -5.765625 L 0.3125 -6.265625 L 3.5 -6.265625 L 3.546875 -5.96875 C 3.316406 -5.800781 3.050781 -5.648438 2.75 -5.515625 L 2.75 -0.875 L 4.4375 -1.046875 L 4.859375 -2.421875 L 5.828125 -2.328125 Z M 5.828125 -1.984375 "></path></g></g></g><g fill="#000000" fill-opacity="1"><g transform="translate(189.120075, 244.017933)"><g><path d="M 5.609375 -1.96875 C 5.628906 -1.351562 5.59375 -0.695312 5.5 0 L 0.28125 0 L 0.234375 -0.296875 C 0.472656 -0.460938 0.738281 -0.613281 1.03125 -0.75 L 1.03125 -5.65625 L 0.328125 -5.765625 L 0.328125 -6.265625 L 5.5625 -6.265625 L 5.578125 -6.046875 C 5.578125 -5.460938 5.515625 -4.898438 5.390625 -4.359375 L 4.453125 -4.359375 L 4.28125 -5.328125 L 2.75 -5.421875 L 2.75 -3.515625 L 4.71875 -3.671875 L 4.71875 -2.65625 L 2.75 -2.734375 L 2.75 -0.875 L 4.34375 -1 L 4.671875 -2.046875 Z M 5.609375 -1.96875 "></path></g></g></g><g fill="#000000" fill-opacity="1"><g transform="translate(199.651426, 244.017933)"><g><path d="M 7.03125 -0.5 L 7.015625 0 L 3.8125 0 L 3.75 -0.296875 C 3.925781 -0.429688 4.175781 -0.578125 4.5 -0.734375 L 4.171875 -1.625 L 2.09375 -1.625 L 1.71875 -0.640625 L 2.53125 -0.5 L 2.515625 0 L -0.125 0 L -0.1875 -0.296875 C 0.03125 -0.453125 0.296875 -0.597656 0.609375 -0.734375 L 2.625 -5.734375 L 2.484375 -6.109375 L 3.96875 -6.5 L 6.34375 -0.609375 Z M 3.875 -2.421875 L 3.140625 -4.40625 L 2.390625 -2.421875 Z M 3.875 -2.421875 "></path></g></g></g><g fill="#000000" fill-opacity="1"><g transform="translate(211.005984, 244.017933)"><g><path d="M 6.75 -0.5 L 6.734375 0 L 4.625 0 L 3.375 -2.390625 L 2.75 -2.375 L 2.75 -0.625 L 3.53125 -0.5 L 3.515625 0 L 0.28125 0 L 0.234375 -0.296875 C 0.472656 -0.460938 0.738281 -0.613281 1.03125 -0.75 L 1.03125 -5.65625 L 0.328125 -5.765625 L 0.328125 -6.265625 L 3.546875 -6.34375 C 4.296875 -6.34375 4.914062 -6.15625 5.40625 -5.78125 C 5.894531 -5.40625 6.140625 -4.929688 6.140625 -4.359375 C 6.140625 -3.992188 6.03125 -3.65625 5.8125 -3.34375 C 5.59375 -3.03125 5.296875 -2.789062 4.921875 -2.625 L 6.171875 -0.59375 Z M 2.75 -3.25 C 2.925781 -3.207031 3.101562 -3.1875 3.28125 -3.1875 C 4.019531 -3.1875 4.390625 -3.570312 4.390625 -4.34375 C 4.390625 -4.851562 4.226562 -5.242188 3.90625 -5.515625 L 2.75 -5.375 Z M 2.75 -3.25 "></path></g></g></g><g fill="#000000" fill-opacity="1"><g transform="translate(66.078152, 262.942124)"><g><path d="M 7.296875 -0.03125 L 7.3125 -0.015625 C 6.539062 0.109375 5.660156 0.203125 4.671875 0.265625 L 1.125 -9.75 L -0.046875 -9.9375 L -0.03125 -10.796875 L 5.359375 -10.796875 L 5.46875 -10.28125 C 5.070312 -10.007812 4.632812 -9.769531 4.15625 -9.5625 L 5.84375 -4.234375 L 6.046875 -2 L 6.1875 -2 L 8.734375 -9.703125 L 7.296875 -9.9375 L 7.3125 -10.796875 L 11.75 -10.796875 L 11.84375 -10.28125 C 11.519531 -10.039062 11.101562 -9.804688 10.59375 -9.578125 Z M 7.296875 -0.03125 "></path></g></g></g><g fill="#000000" fill-opacity="1"><g transform="translate(85.543273, 262.942124)"><g><path d="M 6.21875 -0.859375 L 6.203125 0 L 0.484375 0 L 0.390625 -0.515625 C 0.804688 -0.804688 1.269531 -1.0625 1.78125 -1.28125 L 1.78125 -9.734375 L 0.515625 -9.9375 L 0.53125 -10.796875 L 6.015625 -10.796875 L 6.125 -10.28125 C 5.726562 -10 5.265625 -9.742188 4.734375 -9.515625 L 4.734375 -1.109375 Z M 6.21875 -0.859375 "></path></g></g></g><g fill="#000000" fill-opacity="1"><g transform="translate(99.808725, 262.942124)"><g><path d="M 9.203125 -3.03125 C 9.203125 -2.03125 8.804688 -1.222656 8.015625 -0.609375 C 7.222656 0.00390625 6.195312 0.3125 4.9375 0.3125 C 4.28125 0.3125 3.566406 0.222656 2.796875 0.046875 C 2.023438 -0.128906 1.375 -0.375 0.84375 -0.6875 L 0.859375 -0.71875 L 0.84375 -1.203125 C 0.84375 -2.222656 0.941406 -3.097656 1.140625 -3.828125 L 2.46875 -3.828125 L 3.53125 -1.46875 C 4.144531 -1.25 4.773438 -1.128906 5.421875 -1.109375 C 6.003906 -1.378906 6.296875 -1.785156 6.296875 -2.328125 C 6.296875 -2.867188 5.925781 -3.335938 5.1875 -3.734375 L 3.203125 -4.703125 L 2.5625 -5.0625 C 1.40625 -5.75 0.828125 -6.65625 0.828125 -7.78125 C 0.828125 -8.769531 1.234375 -9.570312 2.046875 -10.1875 C 2.867188 -10.8125 3.925781 -11.125 5.21875 -11.125 C 6.4375 -11.125 7.597656 -10.914062 8.703125 -10.5 C 8.660156 -9.1875 8.550781 -8.148438 8.375 -7.390625 L 6.875 -7.390625 L 6.234375 -9.375 C 5.691406 -9.59375 5.0625 -9.710938 4.34375 -9.734375 C 3.851562 -9.441406 3.609375 -9.035156 3.609375 -8.515625 C 3.609375 -8.160156 3.773438 -7.859375 4.109375 -7.609375 C 4.453125 -7.367188 5.015625 -7.078125 5.796875 -6.734375 C 6.578125 -6.390625 7.195312 -6.0625 7.65625 -5.75 C 8.125 -5.445312 8.5 -5.078125 8.78125 -4.640625 C 9.0625 -4.203125 9.203125 -3.664062 9.203125 -3.03125 Z M 9.203125 -3.03125 "></path></g></g></g><g fill="#000000" fill-opacity="1"><g transform="translate(117.252654, 262.942124)"><g><path d="M 12.203125 -10.28125 C 11.804688 -10 11.34375 -9.742188 10.8125 -9.515625 L 10.8125 -4.671875 C 10.800781 -2.898438 10.394531 -1.625 9.59375 -0.84375 C 8.800781 -0.0625 7.742188 0.328125 6.421875 0.328125 C 4.890625 0.328125 3.675781 -0.113281 2.78125 -1 C 1.882812 -1.882812 1.414062 -3.109375 1.375 -4.671875 L 1.375 -9.734375 L 0.109375 -9.9375 L 0.125 -10.796875 L 5.609375 -10.796875 L 5.703125 -10.28125 C 5.316406 -10 4.859375 -9.742188 4.328125 -9.515625 L 4.328125 -4.25 C 4.328125 -3.257812 4.539062 -2.519531 4.96875 -2.03125 C 5.40625 -1.550781 5.988281 -1.3125 6.71875 -1.3125 C 7.25 -1.3125 7.703125 -1.445312 8.078125 -1.71875 C 8.535156 -2.21875 8.769531 -3.1875 8.78125 -4.625 L 8.78125 -9.71875 L 7.421875 -9.9375 L 7.4375 -10.796875 L 12.109375 -10.796875 Z M 12.203125 -10.28125 "></path></g></g></g><g fill="#000000" fill-opacity="1"><g transform="translate(137.223072, 262.942124)"><g><path d="M 12.109375 -0.859375 L 12.09375 0 L 6.5625 0 L 6.453125 -0.515625 C 6.765625 -0.734375 7.203125 -0.976562 7.765625 -1.25 L 7.1875 -2.8125 L 3.609375 -2.8125 L 2.953125 -1.09375 L 4.359375 -0.859375 L 4.34375 0 L -0.234375 0 L -0.328125 -0.515625 C 0.0546875 -0.773438 0.515625 -1.023438 1.046875 -1.265625 L 4.53125 -9.875 L 4.296875 -10.53125 L 6.828125 -11.1875 L 10.921875 -1.046875 Z M 6.671875 -4.171875 L 5.40625 -7.609375 L 4.109375 -4.171875 Z M 6.671875 -4.171875 "></path></g></g></g><g fill="#000000" fill-opacity="1"><g transform="translate(156.786002, 262.942124)"><g><path d="M 10.046875 -3.40625 C 10.046875 -1.976562 9.96875 -0.84375 9.8125 0 L 0.484375 0 L 0.390625 -0.515625 C 0.804688 -0.804688 1.269531 -1.0625 1.78125 -1.28125 L 1.78125 -9.734375 L 0.515625 -9.9375 L 0.53125 -10.796875 L 6.015625 -10.796875 L 6.125 -10.28125 C 5.726562 -10 5.265625 -9.742188 4.734375 -9.515625 L 4.734375 -1.515625 L 7.640625 -1.796875 L 8.375 -4.15625 L 10.046875 -4.015625 Z M 10.046875 -3.40625 "></path></g></g></g><g fill="#000000" fill-opacity="1"><g transform="translate(174.539631, 262.942124)"><g><path d="M 9.203125 -3.03125 C 9.203125 -2.03125 8.804688 -1.222656 8.015625 -0.609375 C 7.222656 0.00390625 6.195312 0.3125 4.9375 0.3125 C 4.28125 0.3125 3.566406 0.222656 2.796875 0.046875 C 2.023438 -0.128906 1.375 -0.375 0.84375 -0.6875 L 0.859375 -0.71875 L 0.84375 -1.203125 C 0.84375 -2.222656 0.941406 -3.097656 1.140625 -3.828125 L 2.46875 -3.828125 L 3.53125 -1.46875 C 4.144531 -1.25 4.773438 -1.128906 5.421875 -1.109375 C 6.003906 -1.378906 6.296875 -1.785156 6.296875 -2.328125 C 6.296875 -2.867188 5.925781 -3.335938 5.1875 -3.734375 L 3.203125 -4.703125 L 2.5625 -5.0625 C 1.40625 -5.75 0.828125 -6.65625 0.828125 -7.78125 C 0.828125 -8.769531 1.234375 -9.570312 2.046875 -10.1875 C 2.867188 -10.8125 3.925781 -11.125 5.21875 -11.125 C 6.4375 -11.125 7.597656 -10.914062 8.703125 -10.5 C 8.660156 -9.1875 8.550781 -8.148438 8.375 -7.390625 L 6.875 -7.390625 L 6.234375 -9.375 C 5.691406 -9.59375 5.0625 -9.710938 4.34375 -9.734375 C 3.851562 -9.441406 3.609375 -9.035156 3.609375 -8.515625 C 3.609375 -8.160156 3.773438 -7.859375 4.109375 -7.609375 C 4.453125 -7.367188 5.015625 -7.078125 5.796875 -6.734375 C 6.578125 -6.390625 7.195312 -6.0625 7.65625 -5.75 C 8.125 -5.445312 8.5 -5.078125 8.78125 -4.640625 C 9.0625 -4.203125 9.203125 -3.664062 9.203125 -3.03125 Z M 9.203125 -3.03125 "></path></g></g></g><g fill="#000000" fill-opacity="1"><g transform="translate(191.983566, 262.942124)"><g><path d="M 11.359375 -5.03125 C 10.609375 -5.519531 9.984375 -5.78125 9.484375 -5.8125 C 9.816406 -5.125 9.984375 -4.410156 9.984375 -3.671875 C 9.984375 -2.441406 9.539062 -1.445312 8.65625 -0.6875 C 7.769531 0.0703125 6.613281 0.453125 5.1875 0.453125 C 3.757812 0.453125 2.570312 0.0976562 1.625 -0.609375 C 0.675781 -1.328125 0.203125 -2.234375 0.203125 -3.328125 C 0.203125 -3.941406 0.359375 -4.472656 0.671875 -4.921875 C 0.992188 -5.378906 1.414062 -5.726562 1.9375 -5.96875 C 1 -6.4375 0.53125 -7.132812 0.53125 -8.0625 C 0.53125 -8.863281 0.898438 -9.535156 1.640625 -10.078125 C 2.378906 -10.617188 3.328125 -10.890625 4.484375 -10.890625 C 5.722656 -10.890625 6.863281 -10.648438 7.90625 -10.171875 L 7.046875 -7.953125 L 4.078125 -9.203125 C 3.796875 -9.078125 3.554688 -8.875 3.359375 -8.59375 C 3.171875 -8.320312 3.078125 -8.023438 3.078125 -7.703125 C 3.078125 -7.253906 3.242188 -6.859375 3.578125 -6.515625 L 5.28125 -5.890625 L 5.015625 -4.6875 C 4.328125 -4.695312 3.785156 -4.535156 3.390625 -4.203125 C 3.003906 -3.878906 2.8125 -3.460938 2.8125 -2.953125 C 2.8125 -2.378906 3.035156 -1.929688 3.484375 -1.609375 C 3.941406 -1.296875 4.5 -1.140625 5.15625 -1.140625 C 5.78125 -1.140625 6.320312 -1.265625 6.78125 -1.515625 C 7.382812 -1.984375 7.6875 -2.660156 7.6875 -3.546875 C 7.6875 -4.128906 7.550781 -4.691406 7.28125 -5.234375 L 6.359375 -4.6875 L 5.734375 -5.84375 C 7.804688 -7.09375 9.34375 -7.71875 10.34375 -7.71875 C 11.019531 -7.71875 11.59375 -7.488281 12.0625 -7.03125 Z M 11.359375 -5.03125 "></path></g></g></g><g fill="#000000" fill-opacity="1"><g transform="translate(211.073795, 262.942124)"><g><path d="M 9.203125 -3.03125 C 9.203125 -2.03125 8.804688 -1.222656 8.015625 -0.609375 C 7.222656 0.00390625 6.195312 0.3125 4.9375 0.3125 C 4.28125 0.3125 3.566406 0.222656 2.796875 0.046875 C 2.023438 -0.128906 1.375 -0.375 0.84375 -0.6875 L 0.859375 -0.71875 L 0.84375 -1.203125 C 0.84375 -2.222656 0.941406 -3.097656 1.140625 -3.828125 L 2.46875 -3.828125 L 3.53125 -1.46875 C 4.144531 -1.25 4.773438 -1.128906 5.421875 -1.109375 C 6.003906 -1.378906 6.296875 -1.785156 6.296875 -2.328125 C 6.296875 -2.867188 5.925781 -3.335938 5.1875 -3.734375 L 3.203125 -4.703125 L 2.5625 -5.0625 C 1.40625 -5.75 0.828125 -6.65625 0.828125 -7.78125 C 0.828125 -8.769531 1.234375 -9.570312 2.046875 -10.1875 C 2.867188 -10.8125 3.925781 -11.125 5.21875 -11.125 C 6.4375 -11.125 7.597656 -10.914062 8.703125 -10.5 C 8.660156 -9.1875 8.550781 -8.148438 8.375 -7.390625 L 6.875 -7.390625 L 6.234375 -9.375 C 5.691406 -9.59375 5.0625 -9.710938 4.34375 -9.734375 C 3.851562 -9.441406 3.609375 -9.035156 3.609375 -8.515625 C 3.609375 -8.160156 3.773438 -7.859375 4.109375 -7.609375 C 4.453125 -7.367188 5.015625 -7.078125 5.796875 -6.734375 C 6.578125 -6.390625 7.195312 -6.0625 7.65625 -5.75 C 8.125 -5.445312 8.5 -5.078125 8.78125 -4.640625 C 9.0625 -4.203125 9.203125 -3.664062 9.203125 -3.03125 Z M 9.203125 -3.03125 "></path></g></g></g><g fill="#000000" fill-opacity="1"><g transform="translate(228.517729, 262.942124)"><g><path d="M 5.5625 -11.125 C 7.144531 -11.125 8.453125 -10.578125 9.484375 -9.484375 C 10.515625 -8.390625 11.03125 -6.976562 11.03125 -5.25 C 11.03125 -3.5625 10.535156 -2.207031 9.546875 -1.1875 C 8.554688 -0.175781 7.265625 0.328125 5.671875 0.328125 C 4.066406 0.328125 2.75 -0.191406 1.71875 -1.234375 C 0.6875 -2.273438 0.171875 -3.632812 0.171875 -5.3125 C 0.171875 -7.019531 0.675781 -8.414062 1.6875 -9.5 C 2.707031 -10.582031 4 -11.125 5.5625 -11.125 Z M 4.34375 -9.328125 C 4.019531 -9.046875 3.757812 -8.578125 3.5625 -7.921875 C 3.375 -7.265625 3.28125 -6.503906 3.28125 -5.640625 C 3.28125 -4.316406 3.515625 -3.253906 3.984375 -2.453125 C 4.460938 -1.648438 5.125 -1.25 5.96875 -1.25 C 6.238281 -1.25 6.492188 -1.296875 6.734375 -1.390625 C 7.097656 -1.722656 7.382812 -2.234375 7.59375 -2.921875 C 7.8125 -3.609375 7.921875 -4.367188 7.921875 -5.203125 C 7.921875 -6.484375 7.6875 -7.523438 7.21875 -8.328125 C 6.757812 -9.140625 6.132812 -9.546875 5.34375 -9.546875 C 5.019531 -9.546875 4.6875 -9.472656 4.34375 -9.328125 Z M 4.34375 -9.328125 "></path></g></g></g><g fill="#000000" fill-opacity="1"><g transform="translate(247.379754, 262.942124)"><g><path d="M 12.203125 -10.28125 C 11.804688 -10 11.34375 -9.742188 10.8125 -9.515625 L 10.8125 -4.671875 C 10.800781 -2.898438 10.394531 -1.625 9.59375 -0.84375 C 8.800781 -0.0625 7.742188 0.328125 6.421875 0.328125 C 4.890625 0.328125 3.675781 -0.113281 2.78125 -1 C 1.882812 -1.882812 1.414062 -3.109375 1.375 -4.671875 L 1.375 -9.734375 L 0.109375 -9.9375 L 0.125 -10.796875 L 5.609375 -10.796875 L 5.703125 -10.28125 C 5.316406 -10 4.859375 -9.742188 4.328125 -9.515625 L 4.328125 -4.25 C 4.328125 -3.257812 4.539062 -2.519531 4.96875 -2.03125 C 5.40625 -1.550781 5.988281 -1.3125 6.71875 -1.3125 C 7.25 -1.3125 7.703125 -1.445312 8.078125 -1.71875 C 8.535156 -2.21875 8.769531 -3.1875 8.78125 -4.625 L 8.78125 -9.71875 L 7.421875 -9.9375 L 7.4375 -10.796875 L 12.109375 -10.796875 Z M 12.203125 -10.28125 "></path></g></g></g><g fill="#000000" fill-opacity="1"><g transform="translate(267.350172, 262.942124)"><g><path d="M 12.46875 -10.28125 C 12.070312 -10.007812 11.632812 -9.769531 11.15625 -9.5625 L 11.078125 0 L 8.46875 0.21875 L 3.59375 -7.109375 L 3.8125 -5.140625 L 3.8125 -1.09375 L 5.25 -0.859375 L 5.234375 0 L 0.484375 0 L 0.390625 -0.515625 C 0.804688 -0.804688 1.269531 -1.0625 1.78125 -1.28125 L 1.78125 -9.71875 L 0.59375 -9.9375 L 0.609375 -10.796875 L 4.59375 -10.796875 L 4.578125 -10.78125 L 9.359375 -3.4375 L 9.140625 -5.484375 L 9.140625 -9.671875 L 7.515625 -9.9375 L 7.53125 -10.796875 L 12.359375 -10.796875 Z M 12.46875 -10.28125 "></path></g></g></g><g fill="#000000" fill-opacity="1"><g transform="translate(287.858491, 262.942124)"><g><path d="M 6.0625 -10.921875 C 7.257812 -10.921875 8.285156 -10.660156 9.140625 -10.140625 C 10.003906 -9.617188 10.65625 -8.941406 11.09375 -8.109375 C 11.539062 -7.285156 11.765625 -6.414062 11.765625 -5.5 C 11.765625 -3.894531 11.25 -2.582031 10.21875 -1.5625 C 9.195312 -0.550781 7.851562 -0.03125 6.1875 0 L 0.484375 0 L 0.390625 -0.515625 C 0.804688 -0.804688 1.269531 -1.0625 1.78125 -1.28125 L 1.78125 -9.765625 L 0.625 -9.9375 L 0.640625 -10.796875 C 2.273438 -10.878906 4.082031 -10.921875 6.0625 -10.921875 Z M 5.828125 -1.5 C 6.679688 -1.5 7.367188 -1.859375 7.890625 -2.578125 C 8.410156 -3.304688 8.671875 -4.226562 8.671875 -5.34375 C 8.671875 -6.207031 8.5 -7.023438 8.15625 -7.796875 C 7.820312 -8.566406 7.363281 -9.140625 6.78125 -9.515625 L 4.734375 -9.265625 L 4.734375 -1.65625 C 5.097656 -1.550781 5.460938 -1.5 5.828125 -1.5 Z M 5.828125 -1.5 "></path></g></g></g><g fill="#000000" fill-opacity="1"><g transform="translate(307.454002, 262.942124)"><g><path d="M 9.203125 -3.03125 C 9.203125 -2.03125 8.804688 -1.222656 8.015625 -0.609375 C 7.222656 0.00390625 6.195312 0.3125 4.9375 0.3125 C 4.28125 0.3125 3.566406 0.222656 2.796875 0.046875 C 2.023438 -0.128906 1.375 -0.375 0.84375 -0.6875 L 0.859375 -0.71875 L 0.84375 -1.203125 C 0.84375 -2.222656 0.941406 -3.097656 1.140625 -3.828125 L 2.46875 -3.828125 L 3.53125 -1.46875 C 4.144531 -1.25 4.773438 -1.128906 5.421875 -1.109375 C 6.003906 -1.378906 6.296875 -1.785156 6.296875 -2.328125 C 6.296875 -2.867188 5.925781 -3.335938 5.1875 -3.734375 L 3.203125 -4.703125 L 2.5625 -5.0625 C 1.40625 -5.75 0.828125 -6.65625 0.828125 -7.78125 C 0.828125 -8.769531 1.234375 -9.570312 2.046875 -10.1875 C 2.867188 -10.8125 3.925781 -11.125 5.21875 -11.125 C 6.4375 -11.125 7.597656 -10.914062 8.703125 -10.5 C 8.660156 -9.1875 8.550781 -8.148438 8.375 -7.390625 L 6.875 -7.390625 L 6.234375 -9.375 C 5.691406 -9.59375 5.0625 -9.710938 4.34375 -9.734375 C 3.851562 -9.441406 3.609375 -9.035156 3.609375 -8.515625 C 3.609375 -8.160156 3.773438 -7.859375 4.109375 -7.609375 C 4.453125 -7.367188 5.015625 -7.078125 5.796875 -6.734375 C 6.578125 -6.390625 7.195312 -6.0625 7.65625 -5.75 C 8.125 -5.445312 8.5 -5.078125 8.78125 -4.640625 C 9.0625 -4.203125 9.203125 -3.664062 9.203125 -3.03125 Z M 9.203125 -3.03125 "></path></g></g></g></svg>